<svg width="39" height="36" viewBox="0 0 39 36" fill="none" xmlns="http://www.w3.org/2000/svg">
<path d="M8.46484 19.5001H26.6161L18.6861 26.8201C18.0523 27.4051 18.0523 28.3651 18.6861 28.9501C19.3198 29.5351 20.3436 29.5351 20.9773 28.9501L31.6861 19.0651C32.3198 18.4801 32.3198 17.5351 31.6861 16.9501L20.9936 7.05006C20.69 6.76918 20.2778 6.61133 19.848 6.61133C19.4181 6.61133 19.0059 6.76918 18.7023 7.05006C18.0686 7.63506 18.0686 8.58006 18.7023 9.16506L26.6161 16.5001H8.46484C7.57109 16.5001 6.83984 17.1751 6.83984 18.0001C6.83984 18.8251 7.57109 19.5001 8.46484 19.5001Z" fill="#553D67"/>
</svg>
