<svg width="11" height="23" viewBox="0 0 11 23" fill="none" xmlns="http://www.w3.org/2000/svg">
<path fill-rule="evenodd" clip-rule="evenodd" d="M3.08276 11.4024V21.8976C3.08276 22.0493 3.20132 22.1693 3.35108 22.1693H7.20108C7.35083 22.1693 7.46938 22.0493 7.46938 21.8976V11.2318H10.2586C10.3959 11.2318 10.5144 11.1244 10.5269 10.979L10.7952 7.76917C10.8077 7.61121 10.6829 7.4722 10.5269 7.4722H7.46938V5.19117C7.46938 4.65409 7.89993 4.22442 8.42408 4.22442H10.5768C10.7266 4.22442 10.8451 4.10437 10.8451 3.95272V0.736545C10.8451 0.584898 10.7266 0.464844 10.5768 0.464844H6.94524C4.81121 0.464844 3.08276 2.2151 3.08276 4.37607V7.4722H1.16089C1.01114 7.4722 0.892578 7.59225 0.892578 7.7439V10.9538C0.892578 11.1054 1.01114 11.2255 1.16089 11.2255H3.08276V11.4024Z" fill="#553D67"/>
</svg>
