<svg width="24" height="23" viewBox="0 0 24 23" fill="none" xmlns="http://www.w3.org/2000/svg">
<path d="M17.8845 4.17029C17.1606 4.17029 16.5679 4.76424 16.5679 5.50352C16.5679 6.23648 17.1544 6.83675 17.8845 6.83675C18.6083 6.83675 19.2011 6.2428 19.2011 5.50352C19.1948 4.76424 18.6083 4.17029 17.8845 4.17029ZM12.0377 5.87632C8.99268 5.87632 6.51545 8.38481 6.51545 11.4683C6.51545 14.5518 8.99268 17.0603 12.0377 17.0603C15.0828 17.0603 17.56 14.5518 17.56 11.4683C17.56 8.38481 15.0828 5.87632 12.0377 5.87632ZM12.0377 15.0446C10.0847 15.0446 8.49973 13.4397 8.49973 11.462C8.49973 9.48425 10.0847 7.87932 12.0377 7.87932C13.9908 7.87932 15.5757 9.48425 15.5757 11.462C15.5757 13.4397 13.9908 15.0446 12.0377 15.0446ZM23.1759 6.81779C23.1759 3.0519 20.162 0 16.4431 0H7.55752C3.83856 0 0.824707 3.0519 0.824707 6.81779V15.8155C0.824707 19.5814 3.83856 22.6333 7.55752 22.6333H16.4431C20.162 22.6333 23.1759 19.5814 23.1759 15.8155V6.81779ZM21.0668 15.8218C21.0668 18.4062 18.9952 20.5039 16.4431 20.5039H7.55752C5.00541 20.5039 2.93378 18.4062 2.93378 15.8218V6.81779C2.93378 4.23348 5.00541 2.13569 7.55752 2.13569H16.4431C18.9952 2.13569 21.0668 4.23348 21.0668 6.81779V15.8218Z" fill="#553D67"/>
</svg>
