<svg width="19" height="19" viewBox="0 0 19 19" fill="none" xmlns="http://www.w3.org/2000/svg">
<path d="M18.9997 11.3766V18.1249C18.9997 18.2892 18.8686 18.4282 18.7001 18.4282H15.262C15.0998 18.4282 14.9625 18.2955 14.9625 18.1249V11.8505C14.9625 10.2013 14.3822 9.07028 12.9158 9.07028C11.7989 9.07028 11.1374 9.82852 10.8442 10.5678C10.7381 10.8332 10.7131 11.1933 10.7131 11.5661V18.1312C10.7131 18.2955 10.5821 18.4345 10.4136 18.4345H6.97547C6.81324 18.4345 6.67595 18.3018 6.67595 18.1312C6.68219 16.4631 6.71964 8.34996 6.6822 6.44805C6.67596 6.27745 6.81322 6.14476 6.9817 6.14476H10.4136C10.5759 6.14476 10.7131 6.27745 10.7131 6.44805V7.8887C10.7069 7.90133 10.6944 7.91397 10.6882 7.92661H10.7131V7.8887C11.2498 7.05464 12.2045 5.86042 14.351 5.86042C17.0091 5.84778 18.9997 7.60436 18.9997 11.3766ZM0.710653 18.4282H4.14882C4.31106 18.4282 4.44832 18.2955 4.44832 18.1249V6.43541C4.44832 6.27113 4.3173 6.13212 4.14882 6.13212H0.710653C0.548417 6.13212 0.411133 6.26481 0.411133 6.43541V18.1249C0.411133 18.2955 0.548417 18.4282 0.710653 18.4282Z" fill="#553D67"/>
<path d="M4.47374 2.38452C4.47374 3.59137 3.50657 4.57076 2.31476 4.57076C1.12295 4.57076 0.155762 3.59137 0.155762 2.38452C0.155762 1.17766 1.12295 0.198272 2.31476 0.198272C3.50657 0.191954 4.47374 1.17766 4.47374 2.38452Z" fill="#553D67"/>
</svg>
