<svg width="21" height="18" viewBox="0 0 21 18" fill="none" xmlns="http://www.w3.org/2000/svg">
<path d="M20.8395 2.72379C20.1781 3.02708 19.448 3.21032 18.7367 3.33038C19.0736 3.27351 19.5728 2.64796 19.7725 2.40154C20.0783 2.0161 20.3341 1.58012 20.4714 1.10622C20.4901 1.06831 20.5026 1.02408 20.4651 0.992484C20.4214 0.973528 20.3902 0.986166 20.3528 0.998803C19.5541 1.42847 18.7304 1.7444 17.8506 1.96555C17.7758 1.98451 17.7258 1.96555 17.6759 1.92132C17.601 1.83918 17.5324 1.75704 17.4575 1.69385C17.0894 1.37792 16.69 1.12518 16.247 0.941935C15.6604 0.701828 15.0177 0.594411 14.3875 0.638641C13.776 0.676553 13.1707 0.853474 12.6279 1.14413C12.0788 1.43479 11.5921 1.83286 11.2052 2.3194C10.8058 2.81857 10.5063 3.41252 10.3566 4.04438C10.213 4.65097 10.2193 5.25124 10.3129 5.86414C10.3254 5.96524 10.3191 5.97788 10.2255 5.96524C6.7936 5.44711 3.94199 4.20235 1.63324 1.53589C1.5334 1.42215 1.47724 1.42215 1.39612 1.5422C0.385266 3.07763 0.878216 5.54189 2.13867 6.75507C2.30714 6.91935 2.48186 7.07732 2.66905 7.22265C2.60042 7.23528 1.75804 7.14682 1.00925 6.75507C0.909414 6.69188 0.859494 6.72979 0.847015 6.84353C0.840775 7.00781 0.853255 7.15946 0.871975 7.3427C1.06541 8.89708 2.13243 10.3377 3.58631 10.9001C3.76103 10.9759 3.94822 11.0391 4.13542 11.0707C3.80471 11.1465 3.46151 11.1971 2.50682 11.1212C2.38826 11.096 2.34458 11.1592 2.38826 11.2729C3.10584 13.2506 4.64709 13.8382 5.8077 14.1668C5.9637 14.1921 6.11969 14.1921 6.27569 14.23C6.26945 14.2426 6.25697 14.2426 6.25073 14.2553C5.8701 14.8492 4.53477 15.2852 3.91703 15.5064C2.78761 15.9044 1.5646 16.0814 0.372786 15.9676C0.179351 15.9423 0.141911 15.9423 0.0919924 15.9676C0.0420735 15.9992 0.0857526 16.0434 0.148151 16.094C0.391506 16.2583 0.63486 16.3973 0.884455 16.5363C1.63948 16.9407 2.43194 17.2629 3.2556 17.4967C7.51118 18.6846 12.3096 17.8127 15.5044 14.5965C18.0129 12.069 18.8927 8.58747 18.8927 5.09959C18.8927 4.96058 19.0549 4.88476 19.1485 4.81525C19.8037 4.31608 20.3216 3.72213 20.8083 3.05867C20.9206 2.90703 20.9082 2.77434 20.9082 2.72379C20.9082 2.71747 20.9082 2.70483 20.9082 2.70483C20.9144 2.66692 20.9269 2.68588 20.8395 2.72379Z" fill="#553D67"/>
<path fill-rule="evenodd" clip-rule="evenodd" d="M6.96826 17.9651C6.96826 17.9272 7.33641 17.9651 6.96826 17.9651C6.96826 17.9461 7.01194 17.9651 6.96826 17.9651Z" fill="#553D67"/>
<path fill-rule="evenodd" clip-rule="evenodd" d="M14.3379 0.664062C14.3129 0.683018 14.2817 0.683018 14.2505 0.664062C14.2879 0.664062 14.3191 0.664062 14.3379 0.664062Z" fill="#553D67"/>
</svg>
